<svg xmlns="http://www.w3.org/2000/svg" viewBox="0 0 32 32" width="32" height="32">
  <defs>
    <radialGradient id="g" cx="50%" cy="50%" r="50%">
      <stop offset="0%" stop-color="#00e5ff" stop-opacity="0.9"/>
      <stop offset="70%" stop-color="#00d68f" stop-opacity="0.4"/>
      <stop offset="100%" stop-color="#0a0b14" stop-opacity="0"/>
    </radialGradient>
    <filter id="glow">
      <feGaussianBlur stdDeviation="1" result="blur"/>
      <feMerge>
        <feMergeNode in="blur"/>
        <feMergeNode in="SourceGraphic"/>
      </feMerge>
    </filter>
  </defs>
  <rect width="32" height="32" rx="6" fill="#0a0b14"/>
  <circle cx="16" cy="16" r="12" fill="url(#g)" opacity="0.3"/>
  <g filter="url(#glow)" stroke="#00e5ff" stroke-width="0.8" fill="none" opacity="0.5">
    <line x1="8" y1="10" x2="16" y2="8"/>
    <line x1="16" y1="8" x2="24" y2="12"/>
    <line x1="24" y1="12" x2="20" y2="20"/>
    <line x1="20" y1="20" x2="12" y2="22"/>
    <line x1="12" y1="22" x2="8" y2="10"/>
    <line x1="16" y1="8" x2="12" y2="22"/>
    <line x1="8" y1="10" x2="20" y2="20"/>
    <line x1="24" y1="12" x2="12" y2="22"/>
  </g>
  <g filter="url(#glow)">
    <circle cx="8" cy="10" r="2" fill="#00e5ff"/>
    <circle cx="16" cy="8" r="2.5" fill="#00e5ff"/>
    <circle cx="24" cy="12" r="2" fill="#00d68f"/>
    <circle cx="20" cy="20" r="2" fill="#a78bfa"/>
    <circle cx="12" cy="22" r="2" fill="#00d68f"/>
  </g>
  <text x="16" y="18" text-anchor="middle" font-family="Georgia, serif" font-size="10" font-weight="400" fill="#e8eaf0" letter-spacing="-0.5">V</text>
</svg>
